<?xml version="1.0" encoding="UTF-8" standalone="no"?>
<!-- Created with Inkscape (http://www.inkscape.org/) -->

<svg
   xmlns:dc="http://purl.org/dc/elements/1.1/"
   xmlns:cc="http://creativecommons.org/ns#"
   xmlns:rdf="http://www.w3.org/1999/02/22-rdf-syntax-ns#"
   xmlns:svg="http://www.w3.org/2000/svg"
   xmlns="http://www.w3.org/2000/svg"
   xmlns:sodipodi="http://sodipodi.sourceforge.net/DTD/sodipodi-0.dtd"
   xmlns:inkscape="http://www.inkscape.org/namespaces/inkscape"
   version="1.1"
   id="svg3732"
   xml:space="preserve"
   width="302.01334"
   height="114.13333"
   viewBox="0 0 302.01334 114.13333"
   sodipodi:docname="logo_uppa.svg"
   inkscape:version="0.92.3 (2405546, 2018-03-11)"><metadata
     id="metadata3738"><rdf:RDF><cc:Work
         rdf:about=""><dc:format>image/svg+xml</dc:format><dc:type
           rdf:resource="http://purl.org/dc/dcmitype/StillImage" /><dc:title></dc:title></cc:Work></rdf:RDF></metadata><defs
     id="defs3736" /><sodipodi:namedview
     pagecolor="#ffffff"
     bordercolor="#666666"
     borderopacity="1"
     objecttolerance="10"
     gridtolerance="10"
     guidetolerance="10"
     inkscape:pageopacity="0"
     inkscape:pageshadow="2"
     inkscape:window-width="1920"
     inkscape:window-height="1080"
     id="namedview3734"
     showgrid="false"
     inkscape:zoom="5.8010683"
     inkscape:cx="151.00667"
     inkscape:cy="57.066666"
     inkscape:window-x="0"
     inkscape:window-y="0"
     inkscape:window-maximized="1"
     inkscape:current-layer="g3740" /><g
     id="g3740"
     inkscape:groupmode="layer"
     inkscape:label="ink_ext_XXXXXX"
     transform="matrix(1.3333333,0,0,-1.3333333,0,114.13333)"><g
       id="g3742"
       transform="scale(0.1)"><path
         d="M 1374.38,593.535 V 447.117 h -38.42 v 146.418 h 38.42"
         style="fill:#7b7c7e;fill-opacity:1;fill-rule:nonzero;stroke:none"
         id="path3744"
         inkscape:connector-curvature="0" /><path
         d="m 1432.99,593.535 33.18,-102.308 38.38,102.308 h 31.08 l -65.06,-146.418 h -27.7 l -53.54,146.418 h 43.66"
         style="fill:#7b7c7e;fill-opacity:1;fill-rule:nonzero;stroke:none"
         id="path3746"
         inkscape:connector-curvature="0" /><path
         d="m 1653.94,593.535 v -21.933 h -65.71 v -36.954 h 58.6 V 513.18 h -58.6 v -42.746 h 68.45 v -23.317 h -106.84 v 146.418 h 104.1"
         style="fill:#7b7c7e;fill-opacity:1;fill-rule:nonzero;stroke:none"
         id="path3748"
         inkscape:connector-curvature="0" /><path
         d="m 1715.29,527.949 c 5.05,-0.23 9.66,-0.465 13.86,-0.465 14.92,0 24.35,4.625 24.35,25.407 0,17.777 -10.1,21.48 -24.35,21.48 l -13.86,0.227 z m 0,-80.832 h -36.71 v 146.418 c 10.46,0 20.76,0.235 31.07,0.453 20.34,0.477 22.65,0.477 26.85,0.477 18.27,0 33.36,-0.695 44.93,-11.32 7.32,-6.93 12.36,-17.325 12.36,-29.797 0,-12.926 -5.24,-31.407 -31.06,-39.032 6.92,-14.082 25.39,-49.878 46.39,-53.574 l 0.62,-1.156 -1.03,-9.695 c -0.22,-2.317 -0.66,-3.016 -2.34,-3.469 -4.61,-1.621 -11.53,-2.77 -18.25,-2.77 -24.75,0 -41.36,12.934 -63.17,65.125 h -9.66 v -61.66"
         style="fill:#7b7c7e;fill-opacity:1;fill-rule:nonzero;stroke:none"
         id="path3750"
         inkscape:connector-curvature="0" /><path
         d="m 1924.96,572.988 c 0.22,-3.472 0.22,-3.937 -1.68,-5.316 l -5.04,-3.242 c -0.63,-0.219 -1.68,-0.692 -2.11,-0.692 -1.25,0 -5.88,3.242 -6.91,3.934 -10.72,6.23 -22.68,7.164 -29.59,7.164 -2.75,0 -19.75,0 -19.75,-14.793 0,-9.004 7.56,-12.234 29.38,-21.703 18.06,-7.852 40.95,-18.012 40.95,-46.645 0,-9.25 -3.17,-32.109 -31.07,-42.261 -4.63,-1.621 -14.49,-5.082 -33.16,-5.082 -11.98,0 -24.98,1.839 -37.8,4.386 -2.07,0.461 -3.14,1.153 -3.36,5.309 l -0.84,16.633 c -0.21,4.379 -0.41,4.843 1.91,5.996 l 5.24,3.008 c 0.84,0.461 1.88,0.918 2.52,0.918 0.21,0 6.72,-4.618 7.97,-5.305 11.53,-6.938 24.36,-9.473 32.34,-9.473 13.21,0 21.18,5.778 21.18,16.621 0,10.856 -5.04,14.094 -38.81,28.645 -29.39,12.699 -30.66,30.715 -30.66,40.637 0,20.562 11.13,29.566 14.9,32.574 10.72,7.847 22.89,11.769 44.29,11.769 16.38,0 27.72,-2.082 35.47,-3.687 2.51,-0.469 2.51,-1.153 3.17,-6 l 1.46,-13.395"
         style="fill:#7b7c7e;fill-opacity:1;fill-rule:nonzero;stroke:none"
         id="path3752"
         inkscape:connector-curvature="0" /><path
         d="M 1986.97,593.535 V 447.117 h -38.4 v 146.418 h 38.4"
         style="fill:#7b7c7e;fill-opacity:1;fill-rule:nonzero;stroke:none"
         id="path3754"
         inkscape:connector-curvature="0" /><path
         d="m 2139.59,593.535 v -21.933 h -49.96 V 447.117 h -38.2 v 124.485 h -49.97 v 21.933 h 138.13"
         style="fill:#7b7c7e;fill-opacity:1;fill-rule:nonzero;stroke:none"
         id="path3756"
         inkscape:connector-curvature="0" /><path
         d="m 2251.09,639.719 -1.06,-7.153 -44.72,-28.171 -13.01,4.378 35.67,42.036 z m 6.29,-46.184 v -21.933 h -65.68 v -36.954 h 58.55 V 513.18 h -58.55 v -42.746 h 68.4 v -23.317 h -106.83 v 146.418 h 104.11"
         style="fill:#7b7c7e;fill-opacity:1;fill-rule:nonzero;stroke:none"
         id="path3758"
         inkscape:connector-curvature="0" /><path
         d="m 1387.09,347.258 c 0,3.914 -0.45,7.555 -1.37,10.926 -0.92,3.359 -2.38,6.281 -4.41,8.75 -2.01,2.461 -4.61,4.394 -7.79,5.781 -3.17,1.387 -7.33,2.07 -12.48,2.07 h -8.5 v -56.211 h 8.75 c 4.6,0 8.48,0.606 11.62,1.797 3.15,1.192 5.78,2.988 7.89,5.391 2.11,2.402 3.69,5.398 4.73,8.984 1.04,3.574 1.56,7.742 1.56,12.512 z m 17.38,0.574 c 0,-7.578 -0.99,-14.062 -2.97,-19.453 -1.99,-5.383 -4.82,-9.785 -8.53,-13.184 -3.7,-3.41 -8.2,-5.91 -13.51,-7.5 -5.3,-1.601 -11.61,-2.402 -18.93,-2.402 h -19.75 c -1.4,0 -2.58,0.41 -3.53,1.25 -0.96,0.82 -1.45,2.176 -1.45,4.051 v 72.051 c 0,1.867 0.49,3.222 1.45,4.054 0.95,0.828 2.13,1.25 3.53,1.25 h 21.21 c 7.37,0 13.62,-0.859 18.75,-2.59 5.13,-1.726 9.46,-4.285 12.97,-7.664 3.51,-3.39 6.17,-7.566 8.01,-12.558 1.83,-4.981 2.75,-10.742 2.75,-17.305"
         style="fill:#7b7c7e;fill-opacity:1;fill-rule:nonzero;stroke:none"
         id="path3760"
         inkscape:connector-curvature="0" /><path
         d="m 1479.3,311.875 c 0,-1.242 -0.06,-2.266 -0.17,-3.105 -0.11,-0.821 -0.26,-1.497 -0.48,-2.012 -0.21,-0.508 -0.48,-0.879 -0.8,-1.113 -0.31,-0.235 -0.66,-0.352 -1.05,-0.352 h -41.52 c -1.4,0 -2.58,0.41 -3.54,1.25 -0.96,0.82 -1.45,2.176 -1.45,4.051 v 72.051 c 0,1.867 0.49,3.222 1.45,4.054 0.96,0.828 2.14,1.25 3.54,1.25 h 41.26 c 0.39,0 0.73,-0.117 1.03,-0.32 0.3,-0.219 0.56,-0.59 0.77,-1.125 0.2,-0.527 0.37,-1.211 0.47,-2.039 0.11,-0.832 0.16,-1.887 0.16,-3.156 0,-1.192 -0.05,-2.207 -0.16,-3.039 -0.1,-0.829 -0.27,-1.504 -0.47,-2.02 -0.21,-0.508 -0.47,-0.879 -0.77,-1.113 -0.3,-0.235 -0.64,-0.352 -1.03,-0.352 h -29.51 v -20.176 h 24.98 c 0.38,0 0.73,-0.117 1.06,-0.351 0.31,-0.235 0.58,-0.606 0.8,-1.094 0.21,-0.488 0.37,-1.152 0.47,-1.973 0.11,-0.839 0.16,-1.847 0.16,-3.039 0,-1.238 -0.05,-2.254 -0.16,-3.062 -0.1,-0.813 -0.26,-1.457 -0.47,-1.945 -0.22,-0.5 -0.49,-0.848 -0.8,-1.055 -0.33,-0.215 -0.68,-0.332 -1.06,-0.332 h -24.98 v -23.301 h 29.77 c 0.39,0 0.74,-0.117 1.05,-0.352 0.32,-0.234 0.59,-0.605 0.8,-1.125 0.22,-0.515 0.37,-1.179 0.48,-2.011 0.11,-0.828 0.17,-1.864 0.17,-3.094"
         style="fill:#7b7c7e;fill-opacity:1;fill-rule:nonzero;stroke:none"
         id="path3762"
         inkscape:connector-curvature="0" /><path
         d="m 1586.78,361.633 c 0,2.898 -0.51,5.281 -1.54,7.156 -1.02,1.875 -2.27,3.25 -3.77,4.141 -1.49,0.898 -3.05,1.465 -4.69,1.699 -1.64,0.234 -3.33,0.351 -5.08,0.351 h -7.15 v -28.046 h 7.54 c 2.68,0 4.92,0.371 6.74,1.093 1.8,0.723 3.28,1.739 4.43,3.028 1.15,1.308 2.03,2.851 2.62,4.668 0.6,1.804 0.9,3.781 0.9,5.91 z m 17.57,1.211 c 0,-4.641 -0.74,-8.75 -2.18,-12.328 -1.45,-3.582 -3.56,-6.59 -6.32,-9.032 -2.76,-2.461 -6.16,-4.316 -10.19,-5.597 -4.02,-1.278 -8.77,-1.914 -14.21,-1.914 h -6.9 v -26.375 c 0,-0.43 -0.14,-0.821 -0.41,-1.153 -0.28,-0.343 -0.74,-0.625 -1.38,-0.84 -0.63,-0.207 -1.49,-0.371 -2.55,-0.507 -1.07,-0.118 -2.44,-0.188 -4.1,-0.188 -1.61,0 -2.97,0.07 -4.05,0.188 -1.08,0.136 -1.94,0.3 -2.59,0.507 -0.63,0.215 -1.08,0.497 -1.34,0.84 -0.25,0.332 -0.38,0.723 -0.38,1.153 v 74.343 c 0,2.004 0.52,3.508 1.57,4.504 1.04,0.996 2.42,1.504 4.12,1.504 h 19.48 c 1.96,0 3.82,-0.078 5.59,-0.226 1.76,-0.145 3.88,-0.477 6.35,-0.965 2.46,-0.488 4.97,-1.387 7.5,-2.715 2.54,-1.309 4.7,-2.988 6.49,-5.012 1.79,-2.019 3.15,-4.383 4.09,-7.09 0.94,-2.703 1.41,-5.73 1.41,-9.097"
         style="fill:#7b7c7e;fill-opacity:1;fill-rule:nonzero;stroke:none"
         id="path3764"
         inkscape:connector-curvature="0" /><path
         d="m 1650.29,372.168 h -0.06 l -11.69,-35.137 h 23.45 z m 37.95,-60.617 c 0.51,-1.531 0.83,-2.742 0.96,-3.641 0.13,-0.898 -0.04,-1.562 -0.51,-2.012 -0.47,-0.449 -1.31,-0.722 -2.5,-0.832 -1.19,-0.105 -2.83,-0.156 -4.91,-0.156 -2.18,0 -3.87,0.031 -5.08,0.09 -1.22,0.066 -2.14,0.195 -2.78,0.391 -0.64,0.195 -1.08,0.449 -1.34,0.8 -0.25,0.332 -0.47,0.782 -0.63,1.336 l -5.57,16.614 h -31.04 l -5.23,-16.172 c -0.18,-0.586 -0.4,-1.094 -0.67,-1.496 -0.29,-0.399 -0.74,-0.719 -1.34,-0.957 -0.63,-0.235 -1.5,-0.399 -2.62,-0.477 -1.13,-0.09 -2.62,-0.129 -4.45,-0.129 -1.96,0 -3.49,0.07 -4.59,0.188 -1.12,0.136 -1.88,0.437 -2.31,0.925 -0.43,0.5 -0.56,1.184 -0.45,2.082 0.14,0.899 0.45,2.09 0.96,3.575 l 25.49,73.328 c 0.25,0.722 0.56,1.308 0.9,1.75 0.34,0.449 0.88,0.801 1.63,1.035 0.74,0.223 1.78,0.371 3.09,0.437 1.32,0.071 3.07,0.098 5.24,0.098 2.52,0 4.51,-0.027 6,-0.098 1.5,-0.066 2.65,-0.214 3.49,-0.437 0.82,-0.234 1.43,-0.586 1.79,-1.055 0.36,-0.468 0.67,-1.113 0.93,-1.925 l 25.54,-73.262"
         style="fill:#7b7c7e;fill-opacity:1;fill-rule:nonzero;stroke:none"
         id="path3766"
         inkscape:connector-curvature="0" /><path
         d="m 1777.05,336.074 c 0,-5.058 -0.74,-9.59 -2.23,-13.594 -1.5,-4.003 -3.69,-7.39 -6.58,-10.156 -2.9,-2.773 -6.48,-4.883 -10.73,-6.328 -4.27,-1.445 -9.16,-2.168 -14.7,-2.168 -5.19,0 -9.85,0.645 -13.98,1.942 -4.13,1.3 -7.62,3.273 -10.47,5.91 -2.86,2.636 -5.04,5.925 -6.55,9.863 -1.52,3.945 -2.28,8.555 -2.28,13.828 v 50.274 c 0,0.429 0.14,0.808 0.39,1.152 0.26,0.34 0.71,0.613 1.37,0.832 0.66,0.203 1.52,0.379 2.6,0.516 1.05,0.117 2.42,0.183 4.08,0.183 1.62,0 2.96,-0.066 4.02,-0.183 1.07,-0.137 1.92,-0.313 2.56,-0.516 0.64,-0.219 1.09,-0.492 1.37,-0.832 0.27,-0.344 0.42,-0.723 0.42,-1.152 v -48.801 c 0,-3.27 0.4,-6.121 1.21,-8.524 0.81,-2.402 1.97,-4.394 3.49,-5.976 1.5,-1.574 3.32,-2.754 5.42,-3.535 2.11,-0.801 4.46,-1.192 7.06,-1.192 2.63,0 5,0.41 7.09,1.211 2.09,0.82 3.85,1.992 5.31,3.555 1.44,1.551 2.56,3.465 3.34,5.742 0.8,2.285 1.19,4.863 1.19,7.762 v 49.758 c 0,0.429 0.12,0.808 0.38,1.152 0.25,0.34 0.7,0.613 1.34,0.832 0.64,0.203 1.5,0.379 2.59,0.516 1.08,0.117 2.43,0.183 4.05,0.183 1.62,0 2.95,-0.066 4,-0.183 1.04,-0.137 1.88,-0.313 2.52,-0.516 0.64,-0.219 1.09,-0.492 1.34,-0.832 0.25,-0.344 0.38,-0.723 0.38,-1.152 v -49.571"
         style="fill:#7b7c7e;fill-opacity:1;fill-rule:nonzero;stroke:none"
         id="path3768"
         inkscape:connector-curvature="0" /><path
         d="m 1897.64,311.875 c 0,-1.242 -0.06,-2.266 -0.16,-3.105 -0.12,-0.821 -0.27,-1.497 -0.49,-2.012 -0.21,-0.508 -0.47,-0.879 -0.79,-1.113 -0.32,-0.235 -0.67,-0.352 -1.05,-0.352 h -41.52 c -1.4,0 -2.59,0.41 -3.55,1.25 -0.96,0.82 -1.44,2.176 -1.44,4.051 v 72.051 c 0,1.867 0.48,3.222 1.44,4.054 0.96,0.828 2.15,1.25 3.55,1.25 h 41.25 c 0.39,0 0.74,-0.117 1.04,-0.32 0.29,-0.219 0.54,-0.59 0.76,-1.125 0.21,-0.527 0.37,-1.211 0.48,-2.039 0.11,-0.832 0.16,-1.887 0.16,-3.156 0,-1.192 -0.05,-2.207 -0.16,-3.039 -0.11,-0.829 -0.27,-1.504 -0.48,-2.02 -0.22,-0.508 -0.47,-0.879 -0.76,-1.113 -0.3,-0.235 -0.65,-0.352 -1.04,-0.352 h -29.5 v -20.176 h 24.97 c 0.39,0 0.74,-0.117 1.06,-0.351 0.32,-0.235 0.58,-0.606 0.8,-1.094 0.21,-0.488 0.37,-1.152 0.48,-1.973 0.1,-0.839 0.16,-1.847 0.16,-3.039 0,-1.238 -0.06,-2.254 -0.16,-3.062 -0.11,-0.813 -0.27,-1.457 -0.48,-1.945 -0.22,-0.5 -0.48,-0.848 -0.8,-1.055 -0.32,-0.215 -0.67,-0.332 -1.06,-0.332 h -24.97 v -23.301 h 29.77 c 0.38,0 0.73,-0.117 1.05,-0.352 0.32,-0.234 0.58,-0.605 0.79,-1.125 0.22,-0.515 0.37,-1.179 0.49,-2.011 0.1,-0.828 0.16,-1.864 0.16,-3.094"
         style="fill:#7b7c7e;fill-opacity:1;fill-rule:nonzero;stroke:none"
         id="path3770"
         inkscape:connector-curvature="0" /><path
         d="m 1979.49,381.055 c 0,-1.242 -0.06,-2.297 -0.16,-3.164 -0.11,-0.879 -0.27,-1.582 -0.48,-2.11 -0.22,-0.539 -0.48,-0.929 -0.8,-1.191 -0.32,-0.254 -0.67,-0.371 -1.06,-0.371 h -20.69 v -66.621 c 0,-0.43 -0.14,-0.821 -0.42,-1.153 -0.27,-0.343 -0.72,-0.625 -1.37,-0.84 -0.64,-0.207 -1.5,-0.371 -2.59,-0.507 -1.08,-0.118 -2.43,-0.188 -4.05,-0.188 -1.62,0 -2.97,0.07 -4.06,0.188 -1.09,0.136 -1.94,0.3 -2.58,0.507 -0.64,0.215 -1.1,0.497 -1.38,0.84 -0.28,0.332 -0.42,0.723 -0.42,1.153 v 66.621 h -20.69 c -0.42,0 -0.79,0.117 -1.08,0.371 -0.3,0.262 -0.56,0.652 -0.77,1.191 -0.21,0.528 -0.38,1.231 -0.48,2.11 -0.1,0.867 -0.16,1.922 -0.16,3.164 0,1.269 0.06,2.363 0.16,3.25 0.1,0.89 0.27,1.613 0.48,2.14 0.21,0.528 0.47,0.918 0.77,1.153 0.29,0.234 0.66,0.351 1.08,0.351 h 58.25 c 0.39,0 0.74,-0.117 1.06,-0.351 0.32,-0.235 0.58,-0.625 0.8,-1.153 0.21,-0.527 0.37,-1.25 0.48,-2.14 0.1,-0.887 0.16,-1.981 0.16,-3.25"
         style="fill:#7b7c7e;fill-opacity:1;fill-rule:nonzero;stroke:none"
         id="path3772"
         inkscape:connector-curvature="0" /><path
         d="m 2094.2,347.258 c 0,3.914 -0.47,7.555 -1.38,10.926 -0.92,3.359 -2.39,6.281 -4.4,8.75 -2.03,2.461 -4.63,4.394 -7.79,5.781 -3.19,1.387 -7.35,2.07 -12.5,2.07 h -8.49 v -56.211 h 8.75 c 4.6,0 8.47,0.606 11.63,1.797 3.14,1.192 5.78,2.988 7.88,5.391 2.11,2.402 3.68,5.398 4.73,8.984 1.04,3.574 1.57,7.742 1.57,12.512 z m 17.36,0.574 c 0,-7.578 -0.98,-14.062 -2.97,-19.453 -1.97,-5.383 -4.82,-9.785 -8.52,-13.184 -3.7,-3.41 -8.21,-5.91 -13.51,-7.5 -5.3,-1.601 -11.62,-2.402 -18.94,-2.402 h -19.73 c -1.41,0 -2.6,0.41 -3.55,1.25 -0.96,0.82 -1.44,2.176 -1.44,4.051 v 72.051 c 0,1.867 0.48,3.222 1.44,4.054 0.95,0.828 2.14,1.25 3.55,1.25 h 21.2 c 7.37,0 13.62,-0.859 18.74,-2.59 5.14,-1.726 9.46,-4.285 12.97,-7.664 3.52,-3.39 6.19,-7.566 8.02,-12.558 1.82,-4.981 2.74,-10.742 2.74,-17.305"
         style="fill:#7b7c7e;fill-opacity:1;fill-rule:nonzero;stroke:none"
         id="path3774"
         inkscape:connector-curvature="0" /><path
         d="m 2186.39,311.875 c 0,-1.242 -0.05,-2.266 -0.16,-3.105 -0.11,-0.821 -0.26,-1.497 -0.48,-2.012 -0.21,-0.508 -0.48,-0.879 -0.79,-1.113 -0.33,-0.235 -0.68,-0.352 -1.05,-0.352 h -41.53 c -1.4,0 -2.59,0.41 -3.54,1.25 -0.96,0.82 -1.44,2.176 -1.44,4.051 v 72.051 c 0,1.867 0.48,3.222 1.44,4.054 0.95,0.828 2.14,1.25 3.54,1.25 h 41.26 c 0.38,0 0.74,-0.117 1.03,-0.32 0.29,-0.219 0.54,-0.59 0.76,-1.125 0.21,-0.527 0.37,-1.211 0.49,-2.039 0.1,-0.832 0.15,-1.887 0.15,-3.156 0,-1.192 -0.05,-2.207 -0.15,-3.039 -0.12,-0.829 -0.28,-1.504 -0.49,-2.02 -0.22,-0.508 -0.47,-0.879 -0.76,-1.113 -0.29,-0.235 -0.65,-0.352 -1.03,-0.352 h -29.5 v -20.176 h 24.97 c 0.38,0 0.73,-0.117 1.05,-0.351 0.33,-0.235 0.58,-0.606 0.8,-1.094 0.21,-0.488 0.37,-1.152 0.49,-1.973 0.09,-0.839 0.15,-1.847 0.15,-3.039 0,-1.238 -0.06,-2.254 -0.15,-3.062 -0.12,-0.813 -0.28,-1.457 -0.49,-1.945 -0.22,-0.5 -0.47,-0.848 -0.8,-1.055 -0.32,-0.215 -0.67,-0.332 -1.05,-0.332 h -24.97 v -23.301 h 29.77 c 0.37,0 0.72,-0.117 1.05,-0.352 0.31,-0.234 0.58,-0.605 0.79,-1.125 0.22,-0.515 0.37,-1.179 0.48,-2.011 0.11,-0.828 0.16,-1.864 0.16,-3.094"
         style="fill:#7b7c7e;fill-opacity:1;fill-rule:nonzero;stroke:none"
         id="path3776"
         inkscape:connector-curvature="0" /><path
         d="m 2260.96,330.078 c 0,-4.348 -0.81,-8.164 -2.42,-11.437 -1.63,-3.282 -3.82,-6.012 -6.59,-8.211 -2.77,-2.188 -6,-3.836 -9.7,-4.942 -3.71,-1.113 -7.68,-1.66 -11.89,-1.66 -2.85,0 -5.5,0.235 -7.96,0.703 -2.44,0.469 -4.61,1.024 -6.47,1.688 -1.88,0.656 -3.45,1.347 -4.7,2.082 -1.25,0.722 -2.17,1.355 -2.71,1.914 -0.55,0.547 -0.95,1.348 -1.19,2.39 -0.23,1.047 -0.35,2.551 -0.35,4.504 0,1.317 0.05,2.422 0.13,3.321 0.09,0.898 0.22,1.621 0.41,2.168 0.19,0.554 0.45,0.957 0.77,1.191 0.32,0.234 0.69,0.352 1.12,0.352 0.59,0 1.44,-0.352 2.52,-1.055 1.09,-0.703 2.48,-1.484 4.18,-2.332 1.7,-0.852 3.74,-1.633 6.11,-2.336 2.36,-0.703 5.09,-1.055 8.21,-1.055 2.04,0 3.87,0.242 5.49,0.742 1.62,0.489 2.99,1.172 4.12,2.071 1.13,0.898 1.99,2 2.59,3.32 0.59,1.317 0.89,2.793 0.89,4.414 0,1.863 -0.51,3.477 -1.53,4.813 -1.03,1.34 -2.36,2.531 -4,3.586 -1.64,1.035 -3.5,2.011 -5.59,2.929 -2.09,0.918 -4.24,1.895 -6.44,2.91 -2.22,1.016 -4.38,2.188 -6.46,3.477 -2.08,1.309 -3.95,2.852 -5.59,4.668 -1.63,1.805 -2.97,3.945 -3.99,6.426 -1.01,2.461 -1.53,5.418 -1.53,8.867 0,3.965 0.73,7.441 2.2,10.449 1.47,2.996 3.45,5.488 5.94,7.473 2.49,1.98 5.43,3.465 8.82,4.441 3.38,0.977 6.97,1.465 10.76,1.465 1.96,0 3.92,-0.148 5.88,-0.449 1.96,-0.293 3.79,-0.703 5.49,-1.211 1.7,-0.508 3.21,-1.082 4.53,-1.719 1.33,-0.644 2.2,-1.172 2.62,-1.601 0.43,-0.43 0.72,-0.793 0.86,-1.094 0.15,-0.293 0.28,-0.684 0.39,-1.172 0.11,-0.488 0.17,-1.113 0.22,-1.855 0.04,-0.743 0.07,-1.672 0.07,-2.774 0,-1.238 -0.04,-2.285 -0.1,-3.137 -0.06,-0.847 -0.17,-1.55 -0.32,-2.105 -0.14,-0.559 -0.36,-0.957 -0.63,-1.211 -0.29,-0.258 -0.66,-0.383 -1.13,-0.383 -0.46,0 -1.21,0.293 -2.23,0.899 -1.02,0.586 -2.28,1.242 -3.77,1.933 -1.49,0.703 -3.21,1.348 -5.18,1.926 -1.95,0.574 -4.1,0.867 -6.44,0.867 -1.84,0 -3.44,-0.234 -4.8,-0.683 -1.36,-0.442 -2.5,-1.055 -3.41,-1.844 -0.91,-0.793 -1.6,-1.742 -2.05,-2.844 -0.45,-1.113 -0.66,-2.285 -0.66,-3.516 0,-1.836 0.49,-3.418 1.49,-4.757 1.01,-1.336 2.35,-2.528 4.03,-3.582 1.69,-1.036 3.58,-2.012 5.71,-2.93 2.13,-0.918 4.31,-1.895 6.52,-2.91 2.21,-1.016 4.38,-2.188 6.52,-3.477 2.13,-1.308 4.02,-2.851 5.68,-4.668 1.66,-1.816 3,-3.937 4.02,-6.387 1.03,-2.441 1.54,-5.332 1.54,-8.652"
         style="fill:#7b7c7e;fill-opacity:1;fill-rule:nonzero;stroke:none"
         id="path3778"
         inkscape:connector-curvature="0" /><path
         d="m 1374.82,221.68 c 0,2.89 -0.5,5.273 -1.52,7.148 -1.02,1.875 -2.28,3.262 -3.77,4.149 -1.49,0.89 -3.06,1.457 -4.7,1.691 -1.64,0.234 -3.33,0.352 -5.07,0.352 h -7.16 v -28.04 h 7.54 c 2.68,0 4.93,0.364 6.74,1.086 1.81,0.723 3.29,1.739 4.44,3.036 1.14,1.3 2.02,2.851 2.62,4.66 0.59,1.816 0.88,3.789 0.88,5.918 z m 17.58,1.211 c 0,-4.649 -0.73,-8.75 -2.18,-12.325 -1.45,-3.586 -3.55,-6.601 -6.31,-9.043 -2.78,-2.453 -6.18,-4.316 -10.2,-5.585 -4.02,-1.29 -8.76,-1.915 -14.21,-1.915 h -6.9 v -26.386 c 0,-0.43 -0.14,-0.813 -0.41,-1.153 -0.28,-0.332 -0.74,-0.617 -1.37,-0.832 -0.64,-0.203 -1.5,-0.379 -2.56,-0.507 -1.07,-0.125 -2.43,-0.184 -4.09,-0.184 -1.61,0 -2.97,0.059 -4.05,0.184 -1.1,0.128 -1.96,0.304 -2.59,0.507 -0.64,0.215 -1.08,0.5 -1.34,0.832 -0.25,0.34 -0.39,0.723 -0.39,1.153 v 74.355 c 0,1.992 0.53,3.496 1.56,4.492 1.06,1.004 2.43,1.504 4.12,1.504 h 19.5 c 1.95,0 3.81,-0.078 5.58,-0.215 1.76,-0.156 3.89,-0.476 6.35,-0.968 2.47,-0.489 4.98,-1.395 7.51,-2.711 2.53,-1.321 4.7,-2.992 6.48,-5.012 1.79,-2.031 3.16,-4.394 4.1,-7.09 0.93,-2.707 1.4,-5.742 1.4,-9.101"
         style="fill:#7b7c7e;fill-opacity:1;fill-rule:nonzero;stroke:none"
         id="path3780"
         inkscape:connector-curvature="0" /><path
         d="m 1426.31,232.207 h -0.06 l -11.69,-35.129 h 23.45 z m 37.95,-60.605 c 0.51,-1.543 0.83,-2.754 0.95,-3.653 0.13,-0.89 -0.03,-1.562 -0.5,-2.011 -0.47,-0.442 -1.31,-0.723 -2.5,-0.821 -1.19,-0.109 -2.83,-0.156 -4.92,-0.156 -2.17,0 -3.86,0.019 -5.07,0.09 -1.22,0.066 -2.14,0.183 -2.79,0.379 -0.63,0.195 -1.07,0.457 -1.33,0.8 -0.26,0.34 -0.47,0.782 -0.64,1.348 l -5.57,16.602 h -31.03 l -5.23,-16.164 c -0.18,-0.594 -0.41,-1.09 -0.68,-1.493 -0.28,-0.41 -0.73,-0.722 -1.34,-0.957 -0.62,-0.234 -1.49,-0.402 -2.61,-0.488 -1.14,-0.078 -2.62,-0.117 -4.46,-0.117 -1.95,0 -3.48,0.059 -4.59,0.184 -1.11,0.128 -1.87,0.441 -2.3,0.929 -0.43,0.489 -0.57,1.172 -0.45,2.071 0.14,0.898 0.45,2.089 0.96,3.574 l 25.48,73.34 c 0.26,0.722 0.56,1.308 0.9,1.746 0.34,0.453 0.88,0.793 1.63,1.027 0.75,0.234 1.78,0.383 3.1,0.449 1.32,0.059 3.07,0.098 5.23,0.098 2.52,0 4.52,-0.039 6.01,-0.098 1.49,-0.066 2.65,-0.215 3.49,-0.449 0.82,-0.234 1.42,-0.586 1.78,-1.055 0.36,-0.468 0.68,-1.113 0.93,-1.914 l 25.55,-73.261"
         style="fill:#7b7c7e;fill-opacity:1;fill-rule:nonzero;stroke:none"
         id="path3782"
         inkscape:connector-curvature="0" /><path
         d="m 1498.55,196.699 v -29.062 c 0,-0.43 -0.13,-0.813 -0.41,-1.153 -0.28,-0.332 -0.74,-0.617 -1.37,-0.832 -0.64,-0.203 -1.51,-0.379 -2.59,-0.507 -1.08,-0.125 -2.44,-0.184 -4.06,-0.184 -1.66,0 -3.02,0.059 -4.08,0.184 -1.07,0.128 -1.94,0.304 -2.59,0.507 -0.66,0.215 -1.13,0.5 -1.38,0.832 -0.25,0.34 -0.37,0.723 -0.37,1.153 v 29.062 l -22.62,45.028 c -0.81,1.574 -1.33,2.804 -1.56,3.683 -0.23,0.86 -0.12,1.524 0.38,1.973 0.49,0.449 1.4,0.722 2.72,0.832 1.31,0.105 3.15,0.164 5.49,0.164 1.96,0 3.52,-0.051 4.69,-0.137 1.17,-0.078 2.1,-0.246 2.77,-0.469 0.69,-0.234 1.2,-0.546 1.51,-0.937 0.32,-0.383 0.62,-0.867 0.93,-1.465 l 9.2,-20.312 c 0.88,-1.954 1.77,-4.024 2.64,-6.192 0.88,-2.179 1.76,-4.453 2.66,-6.836 h 0.12 c 0.82,2.293 1.65,4.532 2.5,6.699 0.84,2.176 1.67,4.239 2.49,6.2 l 9.07,20.187 c 0.21,0.684 0.48,1.223 0.8,1.621 0.31,0.41 0.8,0.742 1.43,0.996 0.64,0.254 1.52,0.43 2.62,0.508 1.1,0.086 2.58,0.137 4.41,0.137 2.43,0 4.31,-0.059 5.65,-0.164 1.34,-0.11 2.26,-0.383 2.74,-0.832 0.49,-0.449 0.61,-1.113 0.36,-2.012 -0.26,-0.898 -0.77,-2.109 -1.53,-3.644 l -22.62,-45.028"
         style="fill:#7b7c7e;fill-opacity:1;fill-rule:nonzero;stroke:none"
         id="path3784"
         inkscape:connector-curvature="0" /><path
         d="m 1580.2,190.117 c 0,-4.336 -0.82,-8.152 -2.44,-11.426 -1.62,-3.281 -3.81,-6.015 -6.58,-8.214 -2.76,-2.196 -6,-3.836 -9.71,-4.95 -3.7,-1.101 -7.66,-1.66 -11.88,-1.66 -2.85,0 -5.5,0.235 -7.95,0.703 -2.44,0.469 -4.61,1.035 -6.48,1.7 -1.88,0.656 -3.44,1.347 -4.69,2.07 -1.26,0.723 -2.17,1.367 -2.72,1.914 -0.55,0.555 -0.95,1.348 -1.19,2.402 -0.23,1.035 -0.35,2.539 -0.35,4.492 0,1.329 0.05,2.43 0.14,3.321 0.08,0.898 0.21,1.621 0.41,2.176 0.19,0.558 0.45,0.949 0.76,1.183 0.33,0.235 0.7,0.352 1.12,0.352 0.6,0 1.44,-0.352 2.53,-1.055 1.08,-0.703 2.48,-1.484 4.18,-2.324 1.7,-0.86 3.73,-1.641 6.1,-2.344 2.36,-0.703 5.09,-1.055 8.21,-1.055 2.04,0 3.88,0.254 5.5,0.743 1.61,0.488 2.98,1.179 4.12,2.07 1.12,0.898 1.98,2.012 2.58,3.32 0.6,1.328 0.89,2.793 0.89,4.414 0,1.875 -0.5,3.477 -1.53,4.824 -1.02,1.336 -2.35,2.528 -3.99,3.575 -1.64,1.043 -3.5,2.019 -5.59,2.937 -2.09,0.91 -4.24,1.887 -6.45,2.903 -2.22,1.027 -4.37,2.187 -6.46,3.488 -2.08,1.297 -3.94,2.847 -5.59,4.656 -1.64,1.816 -2.96,3.953 -3.98,6.426 -1.03,2.461 -1.54,5.43 -1.54,8.875 0,3.957 0.74,7.441 2.2,10.441 1.47,3.008 3.46,5.496 5.94,7.481 2.5,1.972 5.43,3.457 8.82,4.433 3.39,0.977 6.97,1.465 10.76,1.465 1.96,0 3.92,-0.137 5.88,-0.441 1.96,-0.301 3.79,-0.703 5.5,-1.219 1.7,-0.508 3.2,-1.074 4.53,-1.719 1.32,-0.644 2.19,-1.172 2.62,-1.601 0.43,-0.422 0.71,-0.782 0.86,-1.086 0.15,-0.301 0.27,-0.692 0.39,-1.18 0.09,-0.488 0.17,-1.105 0.21,-1.855 0.04,-0.743 0.07,-1.661 0.07,-2.774 0,-1.23 -0.03,-2.285 -0.1,-3.125 -0.07,-0.859 -0.16,-1.562 -0.32,-2.109 -0.15,-0.559 -0.35,-0.957 -0.63,-1.211 -0.29,-0.254 -0.66,-0.391 -1.13,-0.391 -0.47,0 -1.21,0.293 -2.22,0.899 -1.03,0.593 -2.29,1.25 -3.77,1.945 -1.5,0.699 -3.23,1.336 -5.18,1.922 -1.95,0.566 -4.11,0.859 -6.44,0.859 -1.84,0 -3.44,-0.226 -4.81,-0.676 -1.36,-0.437 -2.5,-1.062 -3.41,-1.843 -0.92,-0.801 -1.59,-1.739 -2.04,-2.852 -0.45,-1.105 -0.67,-2.277 -0.67,-3.516 0,-1.828 0.5,-3.417 1.49,-4.746 1.01,-1.347 2.35,-2.539 4.03,-3.586 1.68,-1.043 3.59,-2.019 5.72,-2.937 2.13,-0.918 4.29,-1.887 6.51,-2.91 2.22,-1.016 4.39,-2.18 6.52,-3.477 2.12,-1.301 4.02,-2.851 5.68,-4.668 1.66,-1.808 3.01,-3.926 4.02,-6.386 1.03,-2.442 1.55,-5.332 1.55,-8.653"
         style="fill:#7b7c7e;fill-opacity:1;fill-rule:nonzero;stroke:none"
         id="path3786"
         inkscape:connector-curvature="0" /><path
         d="m 1673.9,207.305 c 0,3.914 -0.46,7.558 -1.38,10.918 -0.92,3.359 -2.38,6.289 -4.4,8.75 -2.03,2.468 -4.62,4.394 -7.8,5.781 -3.17,1.387 -7.33,2.082 -12.49,2.082 h -8.49 v -56.215 h 8.75 c 4.61,0 8.47,0.598 11.63,1.789 3.15,1.192 5.78,2.988 7.88,5.399 2.11,2.406 3.69,5.402 4.72,8.976 1.06,3.574 1.58,7.754 1.58,12.52 z m 17.37,0.566 c 0,-7.578 -1,-14.062 -2.97,-19.445 -1.98,-5.379 -4.82,-9.785 -8.53,-13.192 -3.7,-3.398 -8.21,-5.898 -13.5,-7.5 -5.31,-1.601 -11.62,-2.402 -18.95,-2.402 h -19.73 c -1.41,0 -2.59,0.422 -3.55,1.25 -0.95,0.828 -1.44,2.188 -1.44,4.063 v 72.05 c 0,1.864 0.49,3.223 1.44,4.043 0.96,0.84 2.14,1.25 3.55,1.25 h 21.2 c 7.37,0 13.61,-0.859 18.75,-2.578 5.14,-1.738 9.45,-4.289 12.97,-7.676 3.51,-3.379 6.18,-7.558 8.01,-12.55 1.83,-4.981 2.75,-10.75 2.75,-17.313"
         style="fill:#7b7c7e;fill-opacity:1;fill-rule:nonzero;stroke:none"
         id="path3788"
         inkscape:connector-curvature="0" /><path
         d="m 1754.06,171.914 c 0,-1.23 -0.06,-2.266 -0.16,-3.098 -0.11,-0.828 -0.27,-1.492 -0.48,-2.011 -0.22,-0.516 -0.48,-0.887 -0.8,-1.121 -0.32,-0.235 -0.67,-0.352 -1.06,-0.352 h -41.51 c -1.41,0 -2.59,0.422 -3.55,1.25 -0.95,0.828 -1.44,2.188 -1.44,4.063 v 72.05 c 0,1.864 0.49,3.223 1.44,4.043 0.96,0.84 2.14,1.25 3.55,1.25 h 41.26 c 0.39,0 0.72,-0.105 1.02,-0.312 0.31,-0.215 0.56,-0.586 0.78,-1.125 0.2,-0.535 0.37,-1.219 0.46,-2.039 0.11,-0.84 0.17,-1.883 0.17,-3.164 0,-1.192 -0.06,-2.207 -0.17,-3.028 -0.09,-0.84 -0.26,-1.504 -0.46,-2.019 -0.22,-0.512 -0.47,-0.891 -0.78,-1.117 -0.3,-0.243 -0.63,-0.348 -1.02,-0.348 h -29.51 v -20.188 h 24.98 c 0.38,0 0.73,-0.117 1.05,-0.351 0.31,-0.234 0.59,-0.598 0.8,-1.082 0.22,-0.5 0.37,-1.156 0.47,-1.985 0.12,-0.832 0.17,-1.835 0.17,-3.027 0,-1.238 -0.05,-2.265 -0.17,-3.066 -0.1,-0.821 -0.25,-1.465 -0.47,-1.953 -0.21,-0.489 -0.49,-0.84 -0.8,-1.055 -0.32,-0.215 -0.67,-0.324 -1.05,-0.324 h -24.98 v -23.309 h 29.76 c 0.39,0 0.74,-0.117 1.06,-0.351 0.32,-0.235 0.58,-0.606 0.8,-1.114 0.21,-0.519 0.37,-1.191 0.48,-2.011 0.1,-0.84 0.16,-1.875 0.16,-3.106"
         style="fill:#7b7c7e;fill-opacity:1;fill-rule:nonzero;stroke:none"
         id="path3790"
         inkscape:connector-curvature="0" /><path
         d="m 1843.87,172.363 c 0,-1.277 -0.06,-2.355 -0.16,-3.222 -0.12,-0.879 -0.27,-1.602 -0.49,-2.168 -0.21,-0.586 -0.48,-0.996 -0.8,-1.25 -0.31,-0.254 -0.68,-0.391 -1.11,-0.391 h -37.87 c -1.41,0 -2.6,0.422 -3.56,1.25 -0.95,0.828 -1.43,2.188 -1.43,4.063 v 75.039 c 0,0.429 0.14,0.82 0.42,1.152 0.27,0.352 0.73,0.625 1.36,0.84 0.65,0.207 1.51,0.371 2.6,0.508 1.08,0.125 2.43,0.195 4.05,0.195 1.66,0 3.02,-0.07 4.09,-0.195 1.06,-0.137 1.92,-0.301 2.56,-0.508 0.63,-0.215 1.09,-0.488 1.37,-0.84 0.28,-0.332 0.41,-0.723 0.41,-1.152 v -66.485 h 26 c 0.43,0 0.8,-0.117 1.11,-0.351 0.32,-0.235 0.59,-0.625 0.8,-1.153 0.22,-0.527 0.37,-1.23 0.49,-2.109 0.1,-0.867 0.16,-1.945 0.16,-3.223"
         style="fill:#7b7c7e;fill-opacity:1;fill-rule:nonzero;stroke:none"
         id="path3792"
         inkscape:connector-curvature="0" /><path
         d="m 1865,247.988 c 0,-1.66 -0.08,-3.183 -0.25,-4.57 -0.17,-1.379 -0.45,-2.695 -0.82,-3.926 -0.39,-1.23 -0.88,-2.441 -1.48,-3.613 -0.59,-1.172 -1.34,-2.363 -2.24,-3.606 l -8.55,-12.253 c -0.3,-0.43 -0.62,-0.801 -1,-1.094 -0.36,-0.293 -0.8,-0.547 -1.3,-0.735 -0.51,-0.183 -1.14,-0.332 -1.86,-0.418 -0.72,-0.078 -1.64,-0.117 -2.73,-0.117 -1.24,0 -2.25,0.039 -3.01,0.117 -0.76,0.086 -1.33,0.235 -1.66,0.45 -0.34,0.215 -0.53,0.507 -0.55,0.859 -0.02,0.371 0.08,0.781 0.29,1.25 l 7.8,17.637 v 10.019 c 0,1.446 0.16,2.617 0.5,3.516 0.35,0.898 0.88,1.582 1.61,2.07 0.72,0.489 1.64,0.821 2.73,0.957 1.11,0.157 2.46,0.235 4.03,0.235 1.5,0 2.77,-0.078 3.83,-0.235 1.07,-0.136 1.95,-0.468 2.65,-0.957 0.7,-0.488 1.22,-1.172 1.54,-2.07 0.31,-0.899 0.47,-2.07 0.47,-3.516"
         style="fill:#7b7c7e;fill-opacity:1;fill-rule:nonzero;stroke:none"
         id="path3794"
         inkscape:connector-curvature="0" /><path
         d="m 1897.77,232.207 h -0.06 l -11.69,-35.129 h 23.43 z m 37.94,-60.605 c 0.51,-1.543 0.83,-2.754 0.96,-3.653 0.13,-0.89 -0.05,-1.562 -0.52,-2.011 -0.47,-0.442 -1.29,-0.723 -2.48,-0.821 -1.19,-0.109 -2.83,-0.156 -4.92,-0.156 -2.17,0 -3.87,0.019 -5.08,0.09 -1.21,0.066 -2.14,0.183 -2.77,0.379 -0.65,0.195 -1.1,0.457 -1.35,0.8 -0.25,0.34 -0.47,0.782 -0.64,1.348 l -5.55,16.602 h -31.05 l -5.24,-16.164 c -0.17,-0.594 -0.39,-1.09 -0.66,-1.493 -0.28,-0.41 -0.73,-0.722 -1.35,-0.957 -0.62,-0.234 -1.49,-0.402 -2.62,-0.488 -1.13,-0.078 -2.61,-0.117 -4.43,-0.117 -1.97,0 -3.5,0.059 -4.6,0.184 -1.11,0.128 -1.88,0.441 -2.3,0.929 -0.43,0.489 -0.58,1.172 -0.45,2.071 0.12,0.898 0.45,2.089 0.96,3.574 l 25.49,73.34 c 0.25,0.722 0.55,1.308 0.89,1.746 0.34,0.453 0.89,0.793 1.63,1.027 0.74,0.234 1.78,0.383 3.09,0.449 1.32,0.059 3.07,0.098 5.25,0.098 2.5,0 4.51,-0.039 5.99,-0.098 1.49,-0.066 2.66,-0.215 3.48,-0.449 0.84,-0.234 1.43,-0.586 1.8,-1.055 0.36,-0.468 0.66,-1.113 0.92,-1.914 l 25.55,-73.261"
         style="fill:#7b7c7e;fill-opacity:1;fill-rule:nonzero;stroke:none"
         id="path3796"
         inkscape:connector-curvature="0" /><path
         d="m 1998.69,207.305 c 0,3.914 -0.45,7.558 -1.37,10.918 -0.91,3.359 -2.38,6.289 -4.41,8.75 -2.01,2.468 -4.61,4.394 -7.79,5.781 -3.17,1.387 -7.33,2.082 -12.48,2.082 h -8.5 v -56.215 h 8.75 c 4.6,0 8.48,0.598 11.62,1.789 3.16,1.192 5.78,2.988 7.89,5.399 2.11,2.406 3.69,5.402 4.73,8.976 1.04,3.574 1.56,7.754 1.56,12.52 z m 17.38,0.566 c 0,-7.578 -0.99,-14.062 -2.96,-19.445 -2,-5.379 -4.83,-9.785 -8.54,-13.192 -3.7,-3.398 -8.2,-5.898 -13.51,-7.5 -5.3,-1.601 -11.61,-2.402 -18.93,-2.402 h -19.75 c -1.4,0 -2.58,0.422 -3.53,1.25 -0.96,0.828 -1.45,2.188 -1.45,4.063 v 72.05 c 0,1.864 0.49,3.223 1.45,4.043 0.95,0.84 2.13,1.25 3.53,1.25 h 21.21 c 7.37,0 13.62,-0.859 18.75,-2.578 5.13,-1.738 9.46,-4.289 12.97,-7.676 3.51,-3.379 6.17,-7.558 8.01,-12.55 1.84,-4.981 2.75,-10.75 2.75,-17.313"
         style="fill:#7b7c7e;fill-opacity:1;fill-rule:nonzero;stroke:none"
         id="path3798"
         inkscape:connector-curvature="0" /><path
         d="m 2086.58,206.727 c 0,4.347 -0.33,8.293 -1.01,11.847 -0.69,3.555 -1.85,6.602 -3.48,9.141 -1.64,2.527 -3.83,4.492 -6.55,5.871 -2.73,1.383 -6.14,2.078 -10.23,2.078 -4.12,0 -7.58,-0.781 -10.35,-2.336 -2.76,-1.551 -5,-3.621 -6.7,-6.219 -1.7,-2.597 -2.91,-5.644 -3.61,-9.101 -0.7,-3.477 -1.06,-7.149 -1.06,-11.028 0,-4.511 0.36,-8.562 1.03,-12.167 0.68,-3.602 1.83,-6.668 3.45,-9.227 1.62,-2.559 3.79,-4.5 6.52,-5.84 2.71,-1.348 6.15,-2.012 10.27,-2.012 4.14,0 7.58,0.762 10.35,2.293 2.78,1.536 5,3.625 6.71,6.262 1.71,2.637 2.9,5.715 3.61,9.227 0.7,3.507 1.05,7.257 1.05,11.211 z m 17.64,0.89 c 0,-6.855 -0.86,-12.988 -2.56,-18.398 -1.7,-5.403 -4.24,-9.992 -7.6,-13.758 -3.37,-3.762 -7.53,-6.645 -12.49,-8.625 -4.96,-1.973 -10.69,-2.969 -17.21,-2.969 -6.43,0 -12.04,0.84 -16.84,2.52 -4.79,1.679 -8.77,4.258 -11.97,7.695 -3.19,3.457 -5.59,7.844 -7.19,13.164 -1.59,5.32 -2.38,11.621 -2.38,18.906 0,6.68 0.84,12.696 2.55,18.047 1.69,5.34 4.22,9.883 7.59,13.633 3.37,3.75 7.53,6.621 12.49,8.621 4.96,2.004 10.73,3 17.28,3 6.26,0 11.79,-0.82 16.57,-2.48 4.8,-1.66 8.8,-4.219 12.01,-7.676 3.23,-3.438 5.65,-7.793 7.29,-13.059 1.64,-5.261 2.46,-11.465 2.46,-18.621"
         style="fill:#7b7c7e;fill-opacity:1;fill-rule:nonzero;stroke:none"
         id="path3800"
         inkscape:connector-curvature="0" /><path
         d="m 2185.78,196.121 c 0,-5.066 -0.74,-9.598 -2.23,-13.601 -1.5,-4.004 -3.69,-7.383 -6.58,-10.157 -2.9,-2.773 -6.48,-4.883 -10.73,-6.328 -4.27,-1.445 -9.16,-2.168 -14.7,-2.168 -5.19,0 -9.85,0.645 -13.98,1.953 -4.13,1.289 -7.62,3.262 -10.47,5.899 -2.86,2.644 -5.04,5.937 -6.55,9.875 -1.52,3.933 -2.28,8.543 -2.28,13.828 v 50.262 c 0,0.429 0.14,0.82 0.39,1.152 0.26,0.352 0.72,0.625 1.37,0.84 0.66,0.207 1.52,0.371 2.6,0.508 1.05,0.125 2.42,0.195 4.08,0.195 1.62,0 2.96,-0.07 4.02,-0.195 1.07,-0.137 1.92,-0.301 2.56,-0.508 0.64,-0.215 1.1,-0.488 1.37,-0.84 0.27,-0.332 0.42,-0.723 0.42,-1.152 v -48.789 c 0,-3.282 0.4,-6.133 1.21,-8.536 0.81,-2.402 1.97,-4.394 3.49,-5.968 1.5,-1.571 3.32,-2.762 5.43,-3.543 2.1,-0.793 4.45,-1.184 7.05,-1.184 2.63,0 5,0.402 7.09,1.215 2.09,0.809 3.85,1.988 5.31,3.543 1.44,1.562 2.56,3.476 3.34,5.754 0.8,2.273 1.19,4.859 1.19,7.762 v 49.746 c 0,0.429 0.12,0.82 0.38,1.152 0.25,0.352 0.7,0.625 1.34,0.84 0.64,0.207 1.5,0.371 2.59,0.508 1.08,0.125 2.43,0.195 4.05,0.195 1.62,0 2.95,-0.07 4,-0.195 1.04,-0.137 1.88,-0.301 2.52,-0.508 0.64,-0.215 1.09,-0.488 1.34,-0.84 0.25,-0.332 0.38,-0.723 0.38,-1.152 v -49.563"
         style="fill:#7b7c7e;fill-opacity:1;fill-rule:nonzero;stroke:none"
         id="path3802"
         inkscape:connector-curvature="0" /><path
         d="m 2243.4,223.594 c 0,2.715 -0.62,5.019 -1.86,6.894 -1.23,1.875 -3.25,3.192 -6.06,3.965 -0.85,0.215 -1.83,0.383 -2.9,0.508 -1.1,0.129 -2.6,0.195 -4.51,0.195 h -7.54 v -23.445 h 8.56 c 2.38,0 4.46,0.281 6.26,0.867 1.79,0.567 3.28,1.375 4.47,2.422 1.2,1.035 2.09,2.285 2.68,3.73 0.61,1.446 0.9,3.067 0.9,4.864 z m 21.66,-56.086 c 0,-0.469 -0.1,-0.867 -0.27,-1.18 -0.16,-0.32 -0.57,-0.586 -1.21,-0.801 -0.63,-0.214 -1.57,-0.363 -2.81,-0.449 -1.24,-0.078 -2.92,-0.117 -5.05,-0.117 -1.78,0 -3.21,0.039 -4.27,0.117 -1.07,0.086 -1.91,0.254 -2.52,0.488 -0.63,0.235 -1.06,0.528 -1.31,0.887 -0.26,0.363 -0.47,0.793 -0.65,1.309 l -7.4,18.468 c -0.9,2.079 -1.78,3.926 -2.62,5.547 -0.86,1.621 -1.8,2.969 -2.85,4.063 -1.03,1.086 -2.24,1.902 -3.6,2.461 -1.37,0.547 -2.94,0.82 -4.73,0.82 h -5.24 v -31.484 c 0,-0.43 -0.14,-0.813 -0.41,-1.153 -0.28,-0.332 -0.74,-0.617 -1.37,-0.832 -0.64,-0.203 -1.5,-0.379 -2.56,-0.507 -1.07,-0.125 -2.43,-0.184 -4.09,-0.184 -1.61,0 -2.97,0.059 -4.05,0.184 -1.1,0.128 -1.96,0.304 -2.59,0.507 -0.64,0.215 -1.08,0.5 -1.34,0.832 -0.25,0.34 -0.39,0.723 -0.39,1.153 v 75.058 c 0,1.864 0.49,3.223 1.45,4.043 0.95,0.84 2.12,1.25 3.53,1.25 h 21.41 c 2.17,0 3.95,-0.039 5.36,-0.129 1.4,-0.086 2.68,-0.183 3.84,-0.32 3.32,-0.469 6.31,-1.269 8.96,-2.422 2.67,-1.152 4.92,-2.656 6.78,-4.512 1.85,-1.847 3.26,-4.042 4.24,-6.574 0.98,-2.527 1.47,-5.437 1.47,-8.718 0,-2.774 -0.35,-5.293 -1.05,-7.571 -0.71,-2.273 -1.73,-4.304 -3.1,-6.101 -1.37,-1.778 -3.05,-3.34 -5.05,-4.661 -2,-1.316 -4.28,-2.382 -6.82,-3.191 1.23,-0.598 2.38,-1.32 3.47,-2.168 1.09,-0.859 2.11,-1.894 3.07,-3.105 0.96,-1.211 1.85,-2.598 2.71,-4.141 0.85,-1.562 1.68,-3.32 2.49,-5.273 l 6.97,-16.289 c 0.63,-1.622 1.05,-2.805 1.27,-3.547 0.21,-0.75 0.33,-1.336 0.33,-1.758"
         style="fill:#7b7c7e;fill-opacity:1;fill-rule:nonzero;stroke:none"
         id="path3804"
         inkscape:connector-curvature="0" /><path
         d="m 875.188,399.531 v -43.203 c 0,-87.871 -36.426,-131.836 -109.395,-131.836 -37.758,0 -63.574,8.965 -77.578,26.875 -13.977,17.91 -20.918,51.289 -20.918,100.078 V 729.137 H 506.105 V 356.328 c 0,-127.754 70.399,-191.699 211.25,-191.699 141.305,0 211.993,63.945 211.993,191.699 v 43.203 h -54.16"
         style="fill:#b5bd00;fill-opacity:1;fill-rule:nonzero;stroke:none"
         id="path3806"
         inkscape:connector-curvature="0" /><path
         d="m 127.305,0 h 97.363 V 97.3242 H 127.305 V 0"
         style="fill:#2798d0;fill-opacity:1;fill-rule:nonzero;stroke:none"
         id="path3808"
         inkscape:connector-curvature="0" /><path
         d="m 0,758.746 h 97.3242 v 97.285 H 0 v -97.285"
         style="fill:#479ada;fill-opacity:1;fill-rule:nonzero;stroke:none"
         id="path3810"
         inkscape:connector-curvature="0" /><path
         d="m 127.305,253.301 h 97.363 v 97.344 h -97.363 v -97.344"
         style="fill:#2798d0;fill-opacity:1;fill-rule:nonzero;stroke:none"
         id="path3812"
         inkscape:connector-curvature="0" /><path
         d="m 127.305,506.07 h 97.363 v 97.344 H 127.305 V 506.07"
         style="fill:#2798d0;fill-opacity:1;fill-rule:nonzero;stroke:none"
         id="path3814"
         inkscape:connector-curvature="0" /><path
         d="m 0,126.934 h 97.3242 v 97.324 H 0 v -97.324"
         style="fill:#479ada;fill-opacity:1;fill-rule:nonzero;stroke:none"
         id="path3816"
         inkscape:connector-curvature="0" /><path
         d="m 0,379.004 h 97.3242 v 97.34 H 0 v -97.34"
         style="fill:#479ada;fill-opacity:1;fill-rule:nonzero;stroke:none"
         id="path3818"
         inkscape:connector-curvature="0" /><path
         style="fill:#b5bd20;fill-opacity:1;fill-rule:nonzero;stroke:none;stroke-width:0.13333333"
         d="M 50.669922 0.05078125 L 50.669922 13.029297 L 63.650391 13.029297 L 63.650391 0.05078125 L 50.669922 0.05078125 z M 33.779297 16.837891 L 33.779297 29.814453 L 46.759766 29.814453 L 46.759766 16.837891 L 33.779297 16.837891 z M 50.669922 16.837891 L 50.669922 29.814453 L 63.650391 29.814453 L 63.650391 16.837891 L 50.669922 16.837891 z M 50.669922 33.677734 L 50.669922 46.658203 L 63.650391 46.658203 L 63.650391 33.677734 L 50.669922 33.677734 z M 33.779297 50.621094 L 33.779297 63.599609 L 46.759766 63.599609 L 46.759766 50.621094 L 33.779297 50.621094 z M 50.669922 67.380859 L 50.669922 80.359375 L 63.650391 80.359375 L 63.650391 67.380859 L 50.669922 67.380859 z M 33.779297 84.232422 L 33.779297 97.208984 L 46.759766 97.208984 L 46.759766 84.232422 L 33.779297 84.232422 z "
         transform="matrix(7.5000002,0,0,-7.5000002,0,856)"
         id="path3820" /><path
         d="m 253.352,253.301 h 97.351 v 97.344 h -97.351 v -97.344"
         style="fill:#2798d0;fill-opacity:1;fill-rule:nonzero;stroke:none"
         id="path3832"
         inkscape:connector-curvature="0" /><path
         d="m 1086.46,729.137 c -141.331,0 -212.019,-63.946 -212.019,-191.699 v -70.469 h 54.164 v 70.469 c 0,87.871 36.446,131.835 109.395,131.835 37.75,0 63.59,-8.964 77.58,-26.875 13.98,-17.91 20.91,-51.289 20.91,-100.078 V 164.629 h 161.2 v 372.809 c 0,127.753 -70.4,191.699 -211.23,191.699"
         style="fill:#7b7c7e;fill-opacity:1;fill-rule:nonzero;stroke:none"
         id="path3836"
         inkscape:connector-curvature="0" /></g></g></svg>