<svg width="14" height="15" viewBox="0 0 14 15" fill="none" xmlns="http://www.w3.org/2000/svg">
<path d="M6.5625 7.5C7.55706 7.5 8.51089 7.10491 9.21415 6.40165C9.91741 5.69839 10.3125 4.74456 10.3125 3.75C10.3125 2.75544 9.91741 1.80161 9.21415 1.09835C8.51089 0.395088 7.55706 0 6.5625 0C5.56794 0 4.61411 0.395088 3.91085 1.09835C3.20759 1.80161 2.8125 2.75544 2.8125 3.75C2.8125 4.74456 3.20759 5.69839 3.91085 6.40165C4.61411 7.10491 5.56794 7.5 6.5625 7.5ZM5.22363 8.90625C2.33789 8.90625 0 11.2441 0 14.1299C0 14.6104 0.389648 15 0.870117 15H12.2549C12.7354 15 13.125 14.6104 13.125 14.1299C13.125 11.2441 10.7871 8.90625 7.90137 8.90625H5.22363Z" fill="black"/>
</svg>
