<svg width="31" height="28" viewBox="0 0 31 28" fill="none" xmlns="http://www.w3.org/2000/svg"><path d="M6.31991 10.6641C6.80126 9.3013 7.58267 8.01979 8.6829 6.92581C12.59 3.01874 18.9225 3.01874 22.8296 6.92581L23.8986 8.00103H21.7544C20.6479 8.00103 19.754 8.89497 19.754 10.0014C19.754 11.1079 20.6479 12.0019 21.7544 12.0019H28.7246H28.7496C29.8561 12.0019 30.75 11.1079 30.75 10.0014V2.99999C30.75 1.89351 29.8561 0.999574 28.7496 0.999574C27.6431 0.999574 26.7492 1.89351 26.7492 2.99999V5.20045L25.6552 4.10022C20.1853 -1.36967 11.321 -1.36967 5.85106 4.10022C4.32574 5.62554 3.22552 7.41966 2.55037 9.33881C2.18155 10.3828 2.73166 11.5205 3.76938 11.8893C4.8071 12.2582 5.95108 11.7081 6.31991 10.6703V10.6641ZM2.1878 16.084C1.87523 16.1777 1.57517 16.3465 1.33137 16.5966C1.08132 16.8466 0.912534 17.1467 0.825016 17.4718C0.806262 17.5468 0.787508 17.628 0.775005 17.7093C0.756251 17.8156 0.75 17.9218 0.75 18.0281V25.0046C0.75 26.1111 1.64394 27.005 2.75042 27.005C3.8569 27.005 4.75083 26.1111 4.75083 25.0046V22.8104L5.85106 23.9043C11.321 29.368 20.1853 29.368 25.6489 23.9043C27.1743 22.379 28.2807 20.5849 28.9559 18.672C29.3247 17.628 28.7746 16.4903 27.7369 16.1215C26.6992 15.7526 25.5552 16.3028 25.1863 17.3405C24.705 18.7033 23.9236 19.9848 22.8233 21.0788C18.9163 24.9858 12.5837 24.9858 8.67665 21.0788L8.6704 21.0725L7.60143 20.0035H9.75187C10.8584 20.0035 11.7523 19.1096 11.7523 18.0031C11.7523 16.8966 10.8584 16.0027 9.75187 16.0027H2.77542C2.6754 16.0027 2.57538 16.0089 2.47536 16.0215C2.37534 16.034 2.28157 16.0527 2.1878 16.084Z" fill="#0054FF"/></svg>
