<svg width="31" height="20" viewBox="0 0 31 20" fill="none" xmlns="http://www.w3.org/2000/svg"><path d="M3.83333 0C1.99479 0 0.5 1.49479 0.5 3.33333V6.66667C0.5 7.125 0.885417 7.48438 1.31771 7.63542C2.29687 7.97396 3 8.90625 3 10C3 11.0938 2.29687 12.026 1.31771 12.3646C0.885417 12.5156 0.5 12.875 0.5 13.3333V16.6667C0.5 18.5052 1.99479 20 3.83333 20H27.1667C29.0052 20 30.5 18.5052 30.5 16.6667V13.3333C30.5 12.875 30.1146 12.5156 29.6823 12.3646C28.7031 12.026 28 11.0938 28 10C28 8.90625 28.7031 7.97396 29.6823 7.63542C30.1146 7.48438 30.5 7.125 30.5 6.66667V3.33333C30.5 1.49479 29.0052 0 27.1667 0H3.83333ZM7.16667 5.83333V14.1667C7.16667 14.625 7.54167 15 8 15H23C23.4583 15 23.8333 14.625 23.8333 14.1667V5.83333C23.8333 5.375 23.4583 5 23 5H8C7.54167 5 7.16667 5.375 7.16667 5.83333ZM5.5 5C5.5 4.07812 6.24479 3.33333 7.16667 3.33333H23.8333C24.7552 3.33333 25.5 4.07812 25.5 5V15C25.5 15.9219 24.7552 16.6667 23.8333 16.6667H7.16667C6.24479 16.6667 5.5 15.9219 5.5 15V5Z" fill="#0054FF"/></svg>
