<svg width="31" height="26" viewBox="0 0 31 26" fill="none" xmlns="http://www.w3.org/2000/svg"><path d="M4.75 6.98253C4.75 5.3866 5.38214 3.85605 6.50736 2.72756C7.63258 1.59907 9.1587 0.965088 10.75 0.965088C12.3413 0.965088 13.8674 1.59907 14.9926 2.72756C16.1179 3.85605 16.75 5.3866 16.75 6.98253C16.75 8.57845 16.1179 10.109 14.9926 11.2375C13.8674 12.366 12.3413 13 10.75 13C9.1587 13 7.63258 12.366 6.50736 11.2375C5.38214 10.109 4.75 8.57845 4.75 6.98253ZM0.25 23.6386C0.25 19.008 3.99063 15.2565 8.60781 15.2565H12.8922C17.5094 15.2565 21.25 19.008 21.25 23.6386C21.25 24.4096 20.6266 25.0349 19.8578 25.0349H1.64219C0.873438 25.0349 0.25 24.4096 0.25 23.6386ZM28.8109 25.0349H22.3469C22.6 24.5929 22.75 24.0805 22.75 23.5305V23.1544C22.75 20.3008 21.4797 17.7387 19.4781 16.0181C19.5906 16.0134 19.6984 16.0087 19.8109 16.0087H22.6891C26.8656 16.0087 30.25 19.4029 30.25 23.5916C30.25 24.3908 29.6031 25.0349 28.8109 25.0349ZM20.5 13C19.0469 13 17.7344 12.4076 16.7828 11.4533C17.7063 10.2028 18.25 8.65613 18.25 6.98253C18.25 5.72263 17.9406 4.53324 17.3922 3.48959C18.2641 2.85024 19.3375 2.46945 20.5 2.46945C23.4016 2.46945 25.75 4.82471 25.75 7.73471C25.75 10.6447 23.4016 13 20.5 13Z" fill="#0054FF"/></svg>
