<svg width="30" height="18" viewBox="0 0 30 18" fill="none" xmlns="http://www.w3.org/2000/svg">
<path fill-rule="evenodd" clip-rule="evenodd" d="M15 0.341553C8.59038 0.341553 2.99414 3.82389 0 8.99982C2.99414 14.1757 8.59038 17.6581 15 17.6581C21.4095 17.6581 27.0058 14.1757 29.9999 8.99982C27.0058 3.82389 21.4095 0.341553 15 0.341553ZM20.7722 9.11524C20.7722 12.3031 18.1879 14.8875 15 14.8875C11.8121 14.8875 9.22778 12.3031 9.22778 9.11524C9.22778 5.92733 11.8121 3.34302 15 3.34302C18.1879 3.34302 20.7722 5.92733 20.7722 9.11524ZM18.0016 9.23089C18.0016 10.8248 16.7094 12.117 15.1154 12.117C13.5215 12.117 12.2293 10.8248 12.2293 9.23089C12.2293 9.08209 12.2406 8.93592 12.2623 8.79319C12.5459 8.99593 12.8932 9.11524 13.2683 9.11524C14.2247 9.11524 15 8.33994 15 7.38357C15 7.00848 14.8807 6.66124 14.6781 6.3777C14.8207 6.35602 14.9668 6.34478 15.1154 6.34478C16.7094 6.34478 18.0016 7.63693 18.0016 9.23089Z" fill="white"/>
</svg>
